<?xml version="1.0" encoding="UTF-8" standalone="no"?>
<!-- Created with Inkscape (http://www.inkscape.org/) -->

<svg
   width="600"
   height="208.60204"
   viewBox="0 0 600 208.60204"
   version="1.1"
   id="svg1"
   inkscape:version="1.4 (e7c3feb100, 2024-10-09)"
   sodipodi:docname="utility.svg"
   xmlns:inkscape="http://www.inkscape.org/namespaces/inkscape"
   xmlns:sodipodi="http://sodipodi.sourceforge.net/DTD/sodipodi-0.dtd"
   xmlns:xlink="http://www.w3.org/1999/xlink"
   xmlns="http://www.w3.org/2000/svg"
   xmlns:svg="http://www.w3.org/2000/svg">
  <sodipodi:namedview
     id="namedview1"
     pagecolor="#ffffff"
     bordercolor="#000000"
     borderopacity="0.25"
     inkscape:showpageshadow="2"
     inkscape:pageopacity="0.0"
     inkscape:pagecheckerboard="0"
     inkscape:deskcolor="#d1d1d1"
     inkscape:document-units="mm"
     inkscape:zoom="1.0431888"
     inkscape:cx="258.34249"
     inkscape:cy="471.15152"
     inkscape:window-width="2560"
     inkscape:window-height="1380"
     inkscape:window-x="0"
     inkscape:window-y="0"
     inkscape:window-maximized="1"
     inkscape:current-layer="Logo" />
  <defs
     id="defs1">
    <linearGradient
       id="swatch2"
       inkscape:swatch="solid">
      <stop
         style="stop-color:#7a7a7a;stop-opacity:1;"
         offset="0"
         id="stop2" />
    </linearGradient>
    <linearGradient
       id="swatch1"
       inkscape:swatch="solid">
      <stop
         style="stop-color:#000000;stop-opacity:1;"
         offset="0"
         id="stop1" />
    </linearGradient>
    <linearGradient
       inkscape:collect="always"
       xlink:href="#swatch2"
       id="linearGradient2"
       x1="138.37708"
       y1="94.243919"
       x2="164.55231"
       y2="94.243919"
       gradientUnits="userSpaceOnUse" />
    <linearGradient
       inkscape:collect="always"
       xlink:href="#swatch2"
       id="linearGradient3"
       gradientUnits="userSpaceOnUse"
       x1="138.37708"
       y1="94.243919"
       x2="164.55231"
       y2="94.243919" />
    <linearGradient
       inkscape:collect="always"
       xlink:href="#swatch2"
       id="linearGradient4"
       gradientUnits="userSpaceOnUse"
       x1="138.37708"
       y1="94.243919"
       x2="164.55231"
       y2="94.243919" />
    <linearGradient
       inkscape:collect="always"
       xlink:href="#swatch2"
       id="linearGradient6"
       gradientUnits="userSpaceOnUse"
       x1="138.37708"
       y1="94.243919"
       x2="164.55231"
       y2="94.243919" />
    <linearGradient
       inkscape:collect="always"
       xlink:href="#swatch2"
       id="linearGradient7"
       gradientUnits="userSpaceOnUse"
       x1="138.37708"
       y1="94.243919"
       x2="164.55231"
       y2="94.243919" />
    <linearGradient
       inkscape:collect="always"
       xlink:href="#swatch2"
       id="linearGradient8"
       gradientUnits="userSpaceOnUse"
       x1="138.37708"
       y1="94.243919"
       x2="164.55231"
       y2="94.243919" />
    <linearGradient
       inkscape:collect="always"
       xlink:href="#swatch2"
       id="linearGradient9"
       gradientUnits="userSpaceOnUse"
       x1="138.37708"
       y1="94.243919"
       x2="164.55231"
       y2="94.243919" />
    <linearGradient
       inkscape:collect="always"
       xlink:href="#swatch2"
       id="linearGradient10"
       gradientUnits="userSpaceOnUse"
       x1="138.37708"
       y1="94.243919"
       x2="164.55231"
       y2="94.243919" />
    <linearGradient
       inkscape:collect="always"
       xlink:href="#swatch2"
       id="linearGradient11"
       gradientUnits="userSpaceOnUse"
       x1="138.37708"
       y1="94.243919"
       x2="164.55231"
       y2="94.243919" />
    <linearGradient
       inkscape:collect="always"
       xlink:href="#swatch2"
       id="linearGradient12"
       gradientUnits="userSpaceOnUse"
       x1="138.37708"
       y1="94.243919"
       x2="164.55231"
       y2="94.243919" />
    <linearGradient
       inkscape:collect="always"
       xlink:href="#swatch2"
       id="linearGradient13"
       gradientUnits="userSpaceOnUse"
       x1="138.37708"
       y1="94.243919"
       x2="164.55231"
       y2="94.243919" />
    <linearGradient
       inkscape:collect="always"
       xlink:href="#swatch2"
       id="linearGradient14"
       gradientUnits="userSpaceOnUse"
       x1="138.37708"
       y1="94.243919"
       x2="164.55231"
       y2="94.243919" />
    <linearGradient
       inkscape:collect="always"
       xlink:href="#swatch2"
       id="linearGradient15"
       gradientUnits="userSpaceOnUse"
       x1="138.37708"
       y1="94.243919"
       x2="164.55231"
       y2="94.243919" />
    <linearGradient
       inkscape:collect="always"
       xlink:href="#swatch2"
       id="linearGradient16"
       gradientUnits="userSpaceOnUse"
       x1="138.37708"
       y1="94.243919"
       x2="164.55231"
       y2="94.243919" />
  </defs>
  <g
     inkscape:label="Layer 1"
     inkscape:groupmode="layer"
     id="layer1"
     style="fill:url(#linearGradient2)"
     transform="translate(-138.37703,-89.693749)">
    <g
       id="Logo"
       transform="matrix(6.0492172,0,0,6.0492172,-2345.9155,-56.425093)"
       style="fill:url(#linearGradient16);fill-opacity:1">
      <path
         d="m 492.57,28.83 h 13.78 c 0,0 3.26,0.7 3.26,3.46 v 3.21 c 0,1.85 -1.62,3.84 -3.26,3.84 -1.64,0 -0.57,0.69 -0.57,0.69 0,0 3.83,2.26 3.83,3.42 v 2.45 h -3.26 v -1.75 c -0.05,-1.39 -3.99,-4.12 -5.84,-4.12 -1.85,0 -4.74,0 -4.74,0 v -2.65 h 5.97 l 3.28,-0.03 c 1.33,0 1.33,-1.9 1.33,-1.94 v -1.97 c 0,0 0,-2.03 -1.33,-2.03 h -9.25 V 45.9 h -3.21 V 28.84 Z"
         style="fill:url(#linearGradient3);fill-opacity:1"
         id="path37" />
      <path
         d="m 475.01,28.65 h 3.32 v 11.2 c 0,0 -0.32,3.93 3.93,3.93 4.25,0 9.19,0 9.19,0 v 2.63 h -9.19 c 0,0 -7.25,0.79 -7.25,-6.56 z"
         style="fill:url(#linearGradient4);fill-opacity:1"
         id="path38" />
      <path
         fill="currentColor"
         d="m 471.53,24.56 c 0.54,-0.54 1.42,-0.54 1.96,0 0.54,0.54 0.54,1.42 0,1.96 l -8.98,8.98 c -0.54,0.54 -1.42,0.54 -1.96,0 -0.54,-0.54 -0.54,-1.42 0,-1.96 z m -24.08,0 c -0.54,0.54 -0.54,1.42 0,1.96 l 8.98,8.98 c 0.54,0.54 1.42,0.54 1.96,0 0.54,-0.54 0.54,-1.42 0,-1.96 l -8.98,-8.98 c -0.54,-0.54 -1.42,-0.54 -1.96,0 z m 15.11,15.11 c -0.54,0.54 -0.54,1.42 0,1.96 l 8.98,8.98 c 0.54,0.54 1.42,0.54 1.96,0 0.54,-0.54 0.54,-1.42 0,-1.96 l -8.98,-8.98 c -0.54,-0.54 -1.42,-0.54 -1.96,0 z m -4.17,0 c -0.54,-0.54 -1.42,-0.54 -1.96,0 l -8.98,8.98 c -0.54,0.54 -0.54,1.42 0,1.96 0.54,0.54 1.42,0.54 1.96,0 l 8.98,-8.98 c 0.54,-0.54 0.54,-1.42 0,-1.96 z"
         style="fill:#00ffff;fill-opacity:1.0;fill-rule:evenodd"
         id="path39" />
      <path
         d="m 437.08,28.61 c -4.88,0 -8.84,3.96 -8.84,8.84 0,4.88 3.96,8.84 8.84,8.84 4.88,0 8.84,-3.96 8.84,-8.84 0,-4.88 -3.96,-8.84 -8.84,-8.84 z m 0,14.84 c -3.3,0 -5.98,-2.68 -5.98,-5.98 0,-3.3 2.68,-5.98 5.98,-5.98 3.3,0 5.98,2.68 5.98,5.98 0,3.3 -2.68,5.98 -5.98,5.98 z"
         style="fill:url(#linearGradient6);fill-opacity:1"
         id="path40" />
      <path
         d="m 418.55,42.86 h 5.95 v -3.93 h -5.3 v -2.64 h 7.92 v 9.87 h -5.25 c 0,0 -2.17,0 -3.32,0 -4.6,0 -7.87,-3.51 -7.87,-6.55 0,-0.67 0,-3.34 0,-3.94 0,-0.6 0.35,-7.29 7.87,-7.29 h 8.57 v 3.27 h -8.57 c 0,0 -4.59,0 -4.59,4.02 v 3.27 c 0,3.93 4.59,3.93 4.59,3.93"
         style="fill:url(#linearGradient7);fill-opacity:1"
         id="path41" />
      <g
         style="isolation:isolate;fill:url(#linearGradient15);fill-opacity:1"
         id="g48">
        <path
           d="m 438.6,58.54 c -1.24,0 -1.83,-0.62 -1.83,-1.85 v -3.84 h 1.41 v 3.71 c 0,0.5 0.24,0.77 0.72,0.77 h 4.13 v -4.47 h 1.37 v 5.69 h -5.8 z"
           style="fill:url(#linearGradient8);fill-opacity:1"
           id="path42" />
        <path
           d="m 448.61,58.54 v -4.48 h -3.11 v -1.21 h 7.62 v 1.21 h -3.13 v 4.48 z"
           style="fill:url(#linearGradient9);fill-opacity:1"
           id="path43" />
        <path
           d="m 454.19,58.54 v -5.69 h 1.39 v 5.69 z"
           style="fill:url(#linearGradient10);fill-opacity:1"
           id="path44" />
        <path
           d="m 458.73,58.54 c -1.25,0 -1.83,-0.61 -1.83,-1.85 v -3.84 h 1.39 v 3.71 c 0,0.5 0.24,0.77 0.73,0.77 h 4.47 v 1.22 h -4.76 z"
           style="fill:url(#linearGradient11);fill-opacity:1"
           id="path45" />
        <path
           d="m 464.59,58.54 v -5.69 h 1.39 v 5.69 z"
           style="fill:url(#linearGradient12);fill-opacity:1"
           id="path46" />
        <path
           d="m 470.16,58.54 v -4.48 h -3.11 v -1.21 h 7.62 v 1.21 h -3.13 v 4.48 z"
           style="fill:url(#linearGradient13);fill-opacity:1"
           id="path47" />
        <path
           d="m 479.22,58.54 v -1.86 l -3.88,-3.83 h 1.79 l 2.81,2.82 2.8,-2.82 h 1.71 l -3.84,3.85 v 1.84 z"
           style="fill:url(#linearGradient14);fill-opacity:1"
           id="path48" />
      </g>
    </g>
  </g>
</svg>
